<?xml version="1.0" encoding="utf-8"?>
<!-- Generator: Adobe Illustrator 23.0.2, SVG Export Plug-In . SVG Version: 6.00 Build 0)  -->
<!DOCTYPE svg PUBLIC "-//W3C//DTD SVG 1.1//EN" "http://www.w3.org/Graphics/SVG/1.1/DTD/svg11.dtd" [
	<!ENTITY ns_extend "http://ns.adobe.com/Extensibility/1.0/">
	<!ENTITY ns_ai "http://ns.adobe.com/AdobeIllustrator/10.0/">
	<!ENTITY ns_graphs "http://ns.adobe.com/Graphs/1.0/">
	<!ENTITY ns_vars "http://ns.adobe.com/Variables/1.0/">
	<!ENTITY ns_imrep "http://ns.adobe.com/ImageReplacement/1.0/">
	<!ENTITY ns_sfw "http://ns.adobe.com/SaveForWeb/1.0/">
	<!ENTITY ns_custom "http://ns.adobe.com/GenericCustomNamespace/1.0/">
	<!ENTITY ns_adobe_xpath "http://ns.adobe.com/XPath/1.0/">
]>
<svg version="1.1" id="e9ac5809-725e-4f14-baa9-cf5e94a8b132" xmlns:x="&ns_extend;" xmlns:i="&ns_ai;" xmlns:graph="&ns_graphs;"
	 xmlns="http://www.w3.org/2000/svg" xmlns:xlink="http://www.w3.org/1999/xlink" x="0px" y="0px" viewBox="0 0 550 550"
	 style="enable-background:new 0 0 550 550;" xml:space="preserve">
<style type="text/css">
	.st0{fill:#0465C8;}
	.st1{fill:#0565C7;}
	.st2{fill:#377ED3;}
	.st3{fill:#397FCF;}
	.st4{fill:#1E70CD;}
	.st5{fill:#F6FAFB;}
	.st6{fill:#0E5AAB;}
	.st7{fill:#FBFCFD;}
	.st8{fill:#0364C8;}
	.st9{fill:#085DB8;}
	.st10{fill:#358BE7;}
	.st11{fill:#407EC4;}
	.st12{fill:#FDFEFE;}
</style>
<metadata>
	<sfw  xmlns="&ns_sfw;">
		<slices></slices>
		<sliceSourceBounds  bottomLeftOrigin="true" height="424.9" width="504.9" x="143.6" y="84.6"></sliceSourceBounds>
	</sfw>
</metadata>
<title>computer</title>
<g>
	<path class="st0" d="M493.4,86.6l0.4,2c-1.4,1.4-0.8,3.1-0.9,4.7c0,81.2,0,162.3,0,243.5c0,1.6-0.6,3.4,0.9,4.7
		c-2.5,13.4-15.1,24.6-29.3,26c-2.1,0.2-4.3,0.2-6.5,0.2c-121.8,0-243.5,0-365.3,0.1c-13,0-23.8-4.2-31.5-14.9
		c-2.3-2.9-3.8-6.3-4.5-9.9c0-4,0.1-8,0.1-12c0-81.5,0.1-163,0.1-244.4c3.8-13.7,17.2-23.9,32.1-24c13.2-0.1,26.3,0,39.5,0
		c110.2,0,220.3,0,330.4,0c13.1,0,23.6,5,30.9,16.1c1.3,2,2.8,4.2,2.1,6.9C492,86.4,492.6,86.6,493.4,86.6z M275.3,89.3H92.8
		c-8.9,0-10.9,2-10.9,10.8c0,76.8,0,153.6,0,230.5c0,8.2,2.4,10.8,10.7,10.8c121.7,0,243.3,0,364.9,0c8.1,0,10.5-2.5,10.5-10.3
		c0-77,0-154,0-231c0-9.1-1.7-10.8-10.8-10.8L275.3,89.3z M461.5,88.4l0.2-0.5H88.2v0.5H461.5z"/>
	<path class="st1" d="M27.4,483.9c-5.8-5.8-6.5-12.5-1.4-18.7c21.3-26.2,42.8-52.3,64.2-78.5c3.8-4.6,8.5-6,14.1-6
		c23.3,0.1,46.6,0,70,0c87.3,0,174.5,0,261.8-0.1c8.2,0,14,2.6,19.5,8.8c22.1,24.9,44.7,49.3,67.1,73.9c6.3,6.9,6.4,14.1,0.3,20.2
		c-12,3.9-24.3,2-36.4,2c-141.7,0.1-283.4,0.1-425.1,0C50,485.6,38.6,487.3,27.4,483.9z M64.6,460.2h418.3c-0.4-0.7-0.9-1.4-1.4-2
		c-14.7-16.2-29.3-32.3-44-48.5c-1.7-1.9-3.6-2.1-5.8-2.1c-106.8,0-213.6,0-320.4,0c-2.5-0.1-4.9,1-6.3,3
		c-8.7,10.8-17.5,21.4-26.2,32.1C74.3,448.3,69.8,453.9,64.6,460.2z"/>
	<path class="st2" d="M27.4,483.9c11.2,3.5,22.6,1.7,33.9,1.7c141.7,0.1,283.4,0.1,425.1,0c12.1,0,24.5,1.9,36.4-2
		c-2.8,3.5-6.6,3.9-10.7,3.9c-75.7,0-151.3,0-226.9,0c-82.3,0-164.6,0-246.9,0C34.2,487.5,30.3,487.4,27.4,483.9z"/>
	<path class="st3" d="M56.9,86.6c0,81.5,0,163-0.1,244.5c0,4-0.1,8-0.1,12c-1.7-2.9-1.6-6-1.6-9.2c0-79,0-158.1,0-237.1
		C55,93.2,54.9,89.7,56.9,86.6z"/>
	<path class="st4" d="M493.8,341.6c-1.5-1.4-0.9-3.1-0.9-4.7c0-81.2,0-162.3,0-243.5c0-1.6-0.6-3.4,0.9-4.7c1.4,2.1,1,4.5,1,6.8
		c0,79.8,0,159.6,0,239.3C494.8,337.1,495.2,339.5,493.8,341.6z"/>
	<path class="st4" d="M493.4,86.6c-0.8,0-1.4-0.3-1.5-1.2L493.4,86.6z"/>
	<path class="st5" d="M275.3,89.3h182c9.1,0,10.8,1.7,10.8,10.8c0,77,0,154,0,231c0,7.9-2.4,10.3-10.5,10.3
		c-121.6,0-243.3,0-364.9,0c-8.2,0-10.7-2.6-10.7-10.8c0-76.8,0-153.6,0-230.5c0-8.9,2-10.8,10.9-10.8L275.3,89.3z M433.1,322.8
		c2,0.1,3.3-1.2,4.7-2.4c5.2-2.5,5.7-7.2,5.7-12.2c0-62,0-124,0-186c0-10.6-4.6-15.1-15.2-15.1H122.8c-12.2,0-16.3,4.1-16.3,16.6
		c0,61,0,122,0,183c-0.1,1.8,0,3.7,0.2,5.5c0.9,4.4,2.7,8.2,7.6,9.5c0.5,0.9,1.5,1,2.4,1.1c1.6,1.3,3.5,0.7,5.3,0.7
		c102,0,203.9,0,305.9,0C429.6,323.6,431.5,324.1,433.1,322.8z"/>
	<path class="st6" d="M461.5,88.4H88.2v-0.5h373.5L461.5,88.4z"/>
	<path class="st7" d="M64.6,460.2c5.1-6.3,9.7-11.9,14.3-17.5c8.8-10.7,17.6-21.3,26.2-32.1c1.4-2,3.8-3.1,6.3-3
		c106.8,0.1,213.6,0.1,320.4,0c2.2,0,4.1,0.2,5.8,2.1c14.6,16.2,29.2,32.4,44,48.5c0.5,0.6,0.9,1.3,1.4,2L64.6,460.2z"/>
	<path class="st8" d="M114.3,321.7c-4.9-1.3-6.7-5-7.6-9.5c-0.2-1.8-0.3-3.7-0.2-5.5c0-61,0-122,0-183c0-12.4,4.1-16.6,16.3-16.6
		h305.5c10.6,0,15.2,4.6,15.2,15.1c0,62,0,124,0,186c0,5-0.4,9.7-5.7,12.2c-0.6-0.2-1.4-0.8-1.7-0.6c-3.3,2.3-6.6,2.7-10,0.2
		c-0.7-0.4-1.6-0.4-2.3-0.1c-2.7,2.6-6,1.5-9,1.5c-80,0-160,0-240,0C154.6,321.6,134.4,321.6,114.3,321.7z M416.8,133.7L416.8,133.7
		c-0.2-2.3-1.8-2.2-3.3-1.7c-2.6,0.9-5.3,0.6-7.9,0.6c-72,0-144,0-216,0c-18.1,0-36.3-0.2-54.5-0.4c-2.7,0-3.9,1.1-3.5,3.9
		c0.2,1.1,0.2,2.3,0.2,3.5c0,50.7,0,101.3,0,152c0,6.5-0.1,6.5,6,6.1c1.2-0.1,2.3,0,3.5,0h268.5c1.5,0,3-0.1,4.5,0
		c3.1,0.3,4.4-0.8,4.4-4.2c-0.1-52-0.1-104-0.1-156C418.7,136,419.4,133.9,416.8,133.7L416.8,133.7z"/>
	<path class="st9" d="M114.3,321.7c20.2,0,40.3-0.1,60.5-0.1c80,0,160,0,240,0c3,0,6.3,1,9-1.5c0.7-0.4,1.6-0.3,2.3,0.1
		c3.5,2.5,6.7,2.1,10-0.2c0.3-0.2,1.1,0.4,1.7,0.6c-1.4,1.2-2.7,2.5-4.7,2.4c-1.7-0.1-3.3-0.2-5-0.2h-306c-1.8,0-3.7,0.2-5.5,0.2
		C115.7,322.7,114.8,322.6,114.3,321.7z"/>
	<path class="st10" d="M116.6,322.9c1.8-0.1,3.7-0.2,5.5-0.2h306c1.7,0,3.3,0.2,5,0.2c-1.6,1.3-3.5,0.8-5.3,0.8
		c-102,0-204,0-305.9,0C120.2,323.6,118.3,324.1,116.6,322.9z"/>
	<path class="st11" d="M416.8,133.7c2.6,0.2,2,2.3,2,3.8c0,52,0,104,0.1,156c0,3.4-1.3,4.5-4.4,4.2c-1.5-0.1-3,0-4.5,0H141.4
		c-1.2,0-2.3-0.1-3.5,0c-6.1,0.4-6,0.4-6-6.1c0-50.7,0-101.3,0-152c0-1.2-0.1-2.3-0.3-3.5c-0.5-2.8,0.8-3.9,3.5-3.9
		c18.2,0.2,36.3,0.3,54.5,0.4c72,0,144,0,216,0c2.6,0,5.3,0.3,7.9-0.6C415,131.5,416.6,131.4,416.8,133.7
		c-92.8,0-185.7-0.1-278.5-0.1c-4.3,0-5.2,1.5-5.2,5.4c0.1,50.7,0.1,101.3,0,152c0,4.2,1.3,5.4,5.4,5.4c91.2-0.1,182.3-0.1,273.5,0
		c4.1,0,4.9-1.4,4.9-5.2C416.8,238.7,416.7,186.2,416.8,133.7z"/>
	<path class="st12" d="M416.8,133.7c0,52.5,0,105,0.1,157.5c0,3.8-0.8,5.2-4.9,5.2c-91.2-0.1-182.3-0.1-273.5,0
		c-4.1,0-5.4-1.2-5.4-5.4c0.1-50.7,0.1-101.3,0-152c0-4,0.8-5.4,5.2-5.4C231.1,133.7,323.9,133.7,416.8,133.7L416.8,133.7z"/>
</g>
</svg>
