<?xml version="1.0" encoding="utf-8"?>
<!-- Generator: Adobe Illustrator 23.0.2, SVG Export Plug-In . SVG Version: 6.00 Build 0)  -->
<!DOCTYPE svg PUBLIC "-//W3C//DTD SVG 1.1//EN" "http://www.w3.org/Graphics/SVG/1.1/DTD/svg11.dtd" [
	<!ENTITY ns_extend "http://ns.adobe.com/Extensibility/1.0/">
	<!ENTITY ns_ai "http://ns.adobe.com/AdobeIllustrator/10.0/">
	<!ENTITY ns_graphs "http://ns.adobe.com/Graphs/1.0/">
	<!ENTITY ns_vars "http://ns.adobe.com/Variables/1.0/">
	<!ENTITY ns_imrep "http://ns.adobe.com/ImageReplacement/1.0/">
	<!ENTITY ns_sfw "http://ns.adobe.com/SaveForWeb/1.0/">
	<!ENTITY ns_custom "http://ns.adobe.com/GenericCustomNamespace/1.0/">
	<!ENTITY ns_adobe_xpath "http://ns.adobe.com/XPath/1.0/">
]>
<svg version="1.1" id="b3084e90-c592-4d07-82e3-0489075958c5" xmlns:x="&ns_extend;" xmlns:i="&ns_ai;" xmlns:graph="&ns_graphs;"
	 xmlns="http://www.w3.org/2000/svg" xmlns:xlink="http://www.w3.org/1999/xlink" x="0px" y="0px" viewBox="0 0 550 550"
	 style="enable-background:new 0 0 550 550;" xml:space="preserve">
<style type="text/css">
	.st0{fill:#075EBA;}
	.st1{fill:#0565C7;}
	.st2{fill:#FCFDFE;}
	.st3{fill:#FDFEFE;}
	.st4{fill:#085FB9;}
</style>
<metadata>
	<sfw  xmlns="&ns_sfw;">
		<slices></slices>
		<sliceSourceBounds  bottomLeftOrigin="true" height="352.4" width="435.4" x="178.4" y="120.9"></sliceSourceBounds>
	</sfw>
</metadata>
<title>language</title>
<g>
	<path class="st0" d="M490.8,440.7V147.3h0.5v293.5L490.8,440.7z"/>
	<g>
		<path class="st1" d="M492.6,296v150.5c0,5.7,0,5.7-5.2,3c-19.4-10-38.9-19.6-60.4-24.5c-32.1-7.4-64.1-7-96.1-0.3
			c-18.5,3.9-36.5,9.2-53.3,18c-2.3,1.2-4,0.4-6-0.5c-31.3-15-64.5-22.1-99.1-22.6c-33.5-0.6-66.6,7.3-96.2,23
			c-5.2,2.7-10.4,5.2-15.6,7.9c-2.4,1.2-3.3,0.7-3.3-2c0.1-3,0-6,0-9c0-97,0-194-0.1-290.9c0-5.9,1.7-9.5,6.5-13.1
			c30.3-22.3,63.6-35.4,101.3-36.5s72.8,9.1,105.4,27.6c3.1,1.8,5.2,2,8.5,0.2c37.5-21.2,77.5-31.6,120.9-26.7
			c34.1,3.9,63.8,18.1,90.7,38.8c2.5,2,2,4.4,2,6.8C492.7,195.7,492.7,245.8,492.6,296L492.6,296z M258.8,160c1.4,2,0.7,4.2,0.7,6.3
			c0,75.9,0,151.7,0,227.5c0,1.7-0.6,3.5,1,5.9v-42.2c0-64.7,0-129.3-0.1-194c0-1.9,1.4-4.5-1.8-5.5c-0.3-0.1-0.4-0.4-0.3-0.6
			c0,0,0,0,0-0.1c0.6-3.1-2.2-3.3-3.8-4.2c-3.8-2-7.1-5.4-12-4.4c-10.7-4.5-21.5-8.9-32.8-11.9c-41.4-10.8-80.1-5-116.3,18
			c-2.5,1.6-3.6,3.3-3.6,6.4c0.2,27.3,0.2,54.6,0.2,81.9c0,51-0.1,101.9-0.2,152.9c0,3.3,0.5,4.4,4.2,3.1c7.2-2.5,14.6-4.6,22-6.3
			c45.6-10.4,90.6-7.4,135.1,6c7.4,2.2,7.4,2.4,7.4-5.6c0-73.3,0-146.6,0-219.9C258.6,169,258.8,164.5,258.8,160L258.8,160z
			 M291.4,279c0,39,0.1,78-0.1,117c0,4.7,1.3,5.1,5.3,3.7c14.6-4.8,29.5-8.2,44.7-10.2c38.7-5.4,76.7-3.1,113.9,9.5
			c3.9,1.3,4.7,0.6,4.7-3.4c-0.1-77.8-0.1-155.6,0-233.4c0-3.9-1.4-6-4.5-8c-14.4-8.9-29.7-15.7-46.3-19.3
			c-40.5-8.6-77.9,0.6-113.4,20.2c-3.2,1.8-4.3,3.8-4.3,7.4C291.5,201.3,291.4,240.2,291.4,279z M490.8,440.7l0.5,0.2V147.3h-0.5
			V440.7z M262.2,154.7c-0.3-0.1-0.6-0.4-0.8-0.3c-0.2,0.2-0.4,0.5-0.3,0.8c0.2,0.2,0.5,0.4,0.8,0.3
			C262,155.4,262.1,155,262.2,154.7z"/>
		<path class="st2" d="M258.5,157.3c-0.1,0.2,0,0.5,0.2,0.7c0,0,0,0,0.1,0c0,0.7,0.1,1.4,0.1,2c-0.1,4.5-0.2,9-0.2,13.5
			c0,73.3,0,146.6,0,219.9c0,8,0,7.8-7.4,5.6c-44.5-13.4-89.5-16.5-135.1-6c-7.4,1.7-14.8,3.8-22,6.3c-3.7,1.3-4.2,0.2-4.2-3.1
			c0.1-51,0.2-101.9,0.2-152.9c0-27.3,0-54.7-0.2-81.9c0-3.1,1.1-4.8,3.6-6.4c36.1-23,74.9-28.8,116.3-18c11.3,3,22,7.4,32.8,11.9
			L258.5,157.3z"/>
		<path class="st3" d="M291.4,279c0-38.8,0-77.6-0.1-116.5c0-3.6,1.1-5.7,4.3-7.4c35.5-19.6,72.9-28.8,113.4-20.2
			c16.6,3.5,31.9,10.4,46.3,19.3c3.2,2,4.5,4.1,4.5,8c-0.1,77.8-0.1,155.6,0,233.4c0,4-0.7,4.8-4.7,3.4
			c-37.1-12.6-75.2-14.9-113.9-9.5c-15.2,2-30.2,5.4-44.7,10.2c-4,1.3-5.3,1-5.3-3.7C291.5,357,291.4,318,291.4,279z"/>
		<path class="st4" d="M258.9,160c0-0.7-0.1-1.3-0.1-2c3.2,0.9,1.8,3.6,1.8,5.5c0.1,64.7,0.1,129.3,0.1,194v42.2
			c-1.5-2.4-1-4.2-1-5.9c0-75.8,0-151.7,0-227.5C259.6,164.2,260.3,162,258.9,160z"/>
		<path class="st4" d="M258.5,157.3l-15.9-8.6c4.9-1,8.2,2.4,12,4.4C256.3,154,259,154.3,258.5,157.3z"/>
		<path class="st4" d="M262.2,154.7c-0.1,0.3-0.2,0.7-0.4,0.8c-0.3,0-0.6-0.1-0.8-0.3c0-0.3,0.1-0.6,0.3-0.8
			C261.6,154.3,262,154.6,262.2,154.7z"/>
	</g>
</g>
</svg>
