<?xml version="1.0" encoding="utf-8"?>
<!-- Generator: Adobe Illustrator 23.0.2, SVG Export Plug-In . SVG Version: 6.00 Build 0)  -->
<!DOCTYPE svg PUBLIC "-//W3C//DTD SVG 1.1//EN" "http://www.w3.org/Graphics/SVG/1.1/DTD/svg11.dtd" [
	<!ENTITY ns_extend "http://ns.adobe.com/Extensibility/1.0/">
	<!ENTITY ns_ai "http://ns.adobe.com/AdobeIllustrator/10.0/">
	<!ENTITY ns_graphs "http://ns.adobe.com/Graphs/1.0/">
	<!ENTITY ns_vars "http://ns.adobe.com/Variables/1.0/">
	<!ENTITY ns_imrep "http://ns.adobe.com/ImageReplacement/1.0/">
	<!ENTITY ns_sfw "http://ns.adobe.com/SaveForWeb/1.0/">
	<!ENTITY ns_custom "http://ns.adobe.com/GenericCustomNamespace/1.0/">
	<!ENTITY ns_adobe_xpath "http://ns.adobe.com/XPath/1.0/">
]>
<svg version="1.1" id="b0e693ed-3b21-4452-b656-0d2b98fe2a07" xmlns:x="&ns_extend;" xmlns:i="&ns_ai;" xmlns:graph="&ns_graphs;"
	 xmlns="http://www.w3.org/2000/svg" xmlns:xlink="http://www.w3.org/1999/xlink" x="0px" y="0px" viewBox="0 0 550 550"
	 style="enable-background:new 0 0 550 550;" xml:space="preserve">
<style type="text/css">
	.st0{fill:#0566C8;}
	.st1{fill:#FBFDFD;}
	.st2{fill:#045CB9;}
	.st3{fill:#1B5AA1;}
	.st4{fill:#0264C8;}
	.st5{fill:#0766C7;}
	.st6{fill:#0666C8;}
	.st7{fill:#0767C8;}
	.st8{fill:#0465C8;}
	.st9{fill:#3D7DC3;}
	.st10{fill:#2073CF;}
	.st11{fill:#FAFCFD;}
	.st12{fill:#306EAE;}
</style>
<metadata>
	<sfw  xmlns="&ns_sfw;">
		<slices></slices>
		<sliceSourceBounds  bottomLeftOrigin="true" height="503.3" width="363.7" x="217.1" y="43.9"></sliceSourceBounds>
	</sfw>
</metadata>
<g>
	<title>math</title>
	<path class="st0" d="M459.5,276.5c0,61.3-0.6,122.7,0.3,184c0.5,34.7-26.6,67.6-67.1,67.6c-76.5,0.1-153,0.1-229.5,0
		c-39.8,0-67.3-32.2-67.1-67.7c0.6-123.1,0.2-246.3,0.2-369.5c0-37,28.8-65.9,66-66c77.3-0.1,154.7-0.1,232,0
		c36,0,65.2,29.1,65.2,65.1c0,0.1,0,0.3,0,0.4C459.6,152.5,459.6,214.5,459.5,276.5L459.5,276.5z M394,54.6c0.4-0.2,0.8-0.4,1.2-0.6
		c0,0,0-0.4-0.1-0.4c-0.8,0-1.7-0.1-2.5-0.1c-77.1,0-154.3,0-231.4,0c-0.5,0-1.6-0.6-1.6,0.8l2.1,0.2c-0.8,0.2-1.6,0.5-2.4,0.6
		c-20.8,2.9-32.9,16.7-32.9,37.7c0,122.7,0,245.3,0,368c0,21.8,15.2,37,37.1,37c76.3,0,152.7,0,229,0c21.9,0,37.1-15.3,37.1-37.1
		V174.2c0-27.7,0-55.3,0-83c0-13.6-6-23.9-17.5-31.1C406.5,56.6,400.2,55.8,394,54.6z M124.5,466.2l0.5,0.2V84.9h-0.5V466.2z"/>
	<path class="st1" d="M394,54.6c6.2,1.1,12.5,2,18,5.5c11.5,7.2,17.5,17.5,17.5,31.1c0,27.7,0,55.3,0,83v286.5
		c0,21.8-15.2,37.1-37.1,37.1c-76.3,0-152.7,0-229,0c-21.9,0-37.1-15.2-37.1-37c0-122.7,0-245.3,0-368c0-21,12.1-34.8,32.9-37.7
		c0.8-0.1,1.6-0.4,2.4-0.6c1.5,0.1,3,0.2,4.5,0.2h220.5C389,54.9,391.5,54.7,394,54.6z M163,279.4c-6.6,3.3-9.8,9.5-8.3,16.4
		c1.4,7,7.6,12,14.7,11.9c17.8,0.1,35.7,0,53.5,0c7.5,0,15,0.2,22.5-0.1c6.9-0.4,12.6-5.6,13.6-12.5c1-7.2-2.5-13.3-9.1-15.9
		c-2.2-2.1-4.9-1.7-7.5-1.7c-23.8-0.1-47.6-0.1-71.4,0C168.3,277.5,165.4,277.3,163,279.4L163,279.4z M396.4,93.5v-2
		c-0.1-3.9-3.2-2-4.7-2c-75.8-0.1-151.6-0.1-227.5-0.2c-4.5,0-5.5,1.2-5.5,5.6c0.2,38,0.2,76,0,114c0,4.3,1,5.7,5.5,5.7
		c75.2-0.1,150.3-0.2,225.5-0.1c1.5,0,3,0,4.5,0c2.3,0.1,3-1,2.2-3.1v-1.8c0.2-1.1,0.3-2.3,0.4-3.4c0-33.1,0-66.2,0-99.3
		c-0.1-1.1-0.2-2.3-0.4-3.4v-1.7C397.1,99,397.1,96.2,396.4,93.5z M233.1,456.2c6.4-0.1,11.2-2.9,13.9-8.8
		c2.7-5.4,1.6-11.9-2.6-16.3c-4.1-4.6-8.5-9-13-13.1c-2.5-2.3-2.8-3.8-0.2-6.2c4.3-3.9,8.4-8.1,12.4-12.3c6.3-6.6,6.3-16,0.1-22
		c-5.8-5.7-15.3-5.4-21.6,0.7c-3.8,3.7-7.7,7.4-11.3,11.3c-2.8,3.1-4.8,3.8-7.8,0.2c-3.4-4-7.4-7.6-11.2-11.4
		c-6.6-6.4-16-6.6-21.9-0.7c-6.2,6.1-6.1,15.1,0.4,21.9c4,4.2,8.1,8.4,12.4,12.4c2.3,2.2,2.6,3.6,0.1,5.9
		c-4.3,3.9-8.4,8.1-12.4,12.3c-6.5,6.7-6.6,15.8-0.4,21.9s15.3,5.7,21.9-0.7c4.2-4,8.4-8.1,12.3-12.4c2.2-2.4,3.5-2.1,5.5,0.1
		c3.8,4.1,8,8,12,12C224.8,454.2,228.4,456.4,233.1,456.2z M334.1,321.3c0.3,4.6-0.8,9.4,0.7,13.9c2.2,6.6,9.3,10.6,16.3,9.7
		c7.3-1,12.7-7.1,12.9-14.4c0.3-6.1,0.3-12.3,0-18.5c-0.2-3.6,1.2-4.6,4.6-4.4c5.5,0.2,11,0.1,16.5,0.1c9.7-0.1,16.4-6.3,16.4-15.1
		c0-8.5-6.6-14.8-16-15c-5.5-0.1-11-0.3-16.5,0.1c-4.2,0.3-5.1-1.3-4.9-5.1c0.2-6,0.3-12,0-18c-0.5-8.6-7.1-14.5-15.6-14.2
		c-8.3,0.3-14.1,6.4-14.2,14.9c-0.1,5.8-0.2,11.7,0.1,17.5c0.2,3.7-0.9,5-4.7,4.9c-6.1-0.3-12.3-0.3-18.5,0
		c-8.1,0.3-14.5,6.9-14.5,14.9c0,8.4,6.1,14.7,14.8,15c3,0.1,6-0.1,9,0.1c4.4,0.3,10-2,12.9,1C336,311.5,333.8,317,334.1,321.3
		L334.1,321.3z M348.8,453.3c12.5,0,25,0.1,37.4,0c8.2,0.2,15.1-6.3,15.3-14.5c0.2-8.2-6.3-15.1-14.5-15.3c-0.3,0-0.5,0-0.8,0
		c-24.8-0.1-49.6-0.1-74.4,0c-9,0-15.4,6.4-15.4,14.9s6.7,15,15.9,15C324.5,453.3,336.7,453.3,348.8,453.3L348.8,453.3z
		 M348.8,373.6c-12.1,0-24.3,0-36.4,0c-9.2,0-15.9,6.3-15.9,14.9s6.6,14.9,15.9,14.9c24.5,0,48.9,0,73.4,0c8.9,0,15.5-6.3,15.6-14.7
		c0.1-8.6-6.5-15.1-15.7-15.2C373.4,373.5,361.1,373.5,348.8,373.6L348.8,373.6z"/>
	<path class="st2" d="M124.5,466.2V84.9h0.5v381.6L124.5,466.2z"/>
	<path class="st3" d="M394,54.6c-2.5,0.1-5,0.2-7.5,0.2H166.1c-1.5,0-3-0.2-4.5-0.2l-2.1-0.2c0.1-1.4,1.1-0.8,1.6-0.8
		c77.1,0,154.3,0,231.4,0c0.8,0,1.7,0,2.5,0.1c0,0,0.1,0.4,0.1,0.4C394.8,54.2,394.4,54.4,394,54.6z"/>
	<path class="st4" d="M396.5,209.5v1.8c-0.7,3-3.1,2-4.9,2c-75.3,0-150.7,0.1-226,0.1c-4.1,0-5.4-1-5.3-5.2
		c0.2-36.8,0.1-73.7,0.1-110.5c0-6.3,0-6.4,6.6-6.4h219c3.5,0,7,0.1,10.5,0.1v2l-1.5,1c2,2.1,0.9,4.8,1.5,7.1v1.7
		c-0.1,2-0.2,4-0.2,6c0,29,0,58-0.1,87c0,4,1.2,8.3-1.1,12.2C395,208.6,395.9,209.2,396.5,209.5z M366.1,119.6l-176.5,0.1
		c-2.3,1.4-1.3,3.6-1.3,5.4c-0.1,18-0.1,36,0,53.9c0,6.4,0,6.5,6.5,6.5h152.8c5.5,0,11-0.1,16.5,0c2.8,0.1,4.2-0.6,4.2-3.8
		c-0.1-19.5-0.1-38.9-0.1-58.4C368.3,121.7,368.7,119.7,366.1,119.6L366.1,119.6z"/>
	<path class="st5" d="M233.1,456.2c-4.7,0.1-8.3-2-11.5-5.2c-4-4-8.1-7.9-12-12c-2-2.2-3.4-2.5-5.5-0.1c-3.9,4.3-8.1,8.3-12.3,12.4
		c-6.6,6.4-15.9,6.7-21.9,0.7s-6.1-15.1,0.4-21.9c4-4.2,8.1-8.4,12.4-12.3c2.6-2.3,2.3-3.7-0.1-5.9c-4.3-4-8.3-8.1-12.4-12.4
		c-6.4-6.7-6.5-15.8-0.4-21.9c6-5.9,15.4-5.7,21.9,0.7c3.8,3.7,7.8,7.3,11.2,11.4c3.1,3.6,5.1,2.9,7.8-0.2c3.6-4,7.5-7.6,11.3-11.3
		c6.3-6.1,15.8-6.4,21.6-0.7c6.1,6,6.1,15.4-0.1,22c-4,4.2-8.1,8.4-12.4,12.3c-2.7,2.4-2.4,3.9,0.2,6.2c4.5,4.1,8.9,8.5,13,13.1
		c4.2,4.3,5.3,10.8,2.6,16.3C244.4,453.4,239.5,456.1,233.1,456.2z"/>
	<path class="st6" d="M334.2,321.3c-0.4-4.3,1.8-9.8-0.8-12.6c-2.9-3-8.5-0.8-12.9-1c-3-0.2-6,0.1-9-0.1c-8.7-0.4-14.8-6.6-14.8-15
		c0-8.1,6.4-14.7,14.5-14.9c6.1-0.3,12.3-0.3,18.5,0c3.8,0.2,4.9-1.2,4.7-4.9c-0.3-5.8-0.1-11.7-0.1-17.5
		c0.1-8.5,5.9-14.6,14.2-14.9c8.5-0.3,15.1,5.6,15.6,14.2c0.3,6,0.3,12,0,18c-0.2,3.8,0.8,5.4,4.9,5.1c5.5-0.4,11-0.2,16.5-0.1
		c9.4,0.2,16,6.5,16,15c0,8.7-6.7,15-16.4,15.1c-5.5,0-11,0.2-16.5-0.1c-3.4-0.1-4.8,0.8-4.6,4.4c0.3,6.1,0.3,12.3,0,18.5
		c-0.2,7.3-5.6,13.4-12.8,14.4c-7,1-14-3.1-16.3-9.7C333.4,330.7,334.5,326,334.2,321.3z"/>
	<path class="st7" d="M348.8,453.3c-12.1,0-24.3,0-36.4,0c-9.2,0-15.9-6.4-15.9-15s6.5-14.8,15.4-14.9c24.8-0.1,49.6-0.1,74.4,0
		c8.2-0.2,15.1,6.3,15.3,14.6s-6.3,15.1-14.6,15.3c-0.3,0-0.5,0-0.8,0C373.8,453.3,361.3,453.3,348.8,453.3z"/>
	<path class="st0" d="M348.8,373.5c12.3,0,24.6,0,36.9,0c9.1,0,15.8,6.5,15.7,15.2c-0.1,8.4-6.7,14.7-15.6,14.7
		c-24.5,0-48.9,0-73.4,0c-9.3,0-15.9-6.3-15.9-14.9s6.6-14.9,15.9-14.9C324.5,373.5,336.7,373.5,348.8,373.5z"/>
	<path class="st8" d="M250,279.2c6.6,2.6,10.1,8.6,9.1,15.9c-1,6.9-6.7,12.1-13.6,12.4c-7.5,0.3-15,0.1-22.5,0.1
		c-17.8,0-35.7,0.1-53.5,0c-7.1,0.1-13.3-4.9-14.7-11.9c-1.4-6.8,1.8-13,8.3-16.4c17.3,0,34.7,0.1,52,0.1
		C226.7,279.5,238.4,279.3,250,279.2z"/>
	<path class="st9" d="M396.4,91.5c-3.5,0-7-0.1-10.5-0.1H167c-6.6,0-6.6,0-6.6,6.4c0,36.8,0.1,73.7-0.1,110.5c0,4.2,1.2,5.2,5.3,5.2
		c75.3-0.1,150.7-0.2,226-0.1c1.8,0,4.2,1,4.9-2c0.8,2.1,0.1,3.2-2.2,3.1c-1.5,0-3,0-4.5,0c-75.2,0-150.3,0-225.5,0.1
		c-4.5,0-5.5-1.4-5.5-5.7c0.2-38,0.2-76,0-114c0-4.3,1-5.6,5.5-5.6c75.8,0.2,151.6,0.1,227.5,0.2C393.3,89.5,396.4,87.6,396.4,91.5z
		"/>
	<path class="st10" d="M250,279.2c-11.6,0.1-23.3,0.3-35,0.3c-17.3,0-34.6-0.1-52-0.1c2.3-2.1,5.2-1.9,8-1.9c23.8,0,47.6,0,71.4,0
		C245,277.5,247.8,277.1,250,279.2z"/>
	<path class="st9" d="M396.5,209.5c-0.5-0.4-1.5-1-1.5-1c2.4-3.9,1.1-8.1,1.1-12.2c0.1-29,0.1-58,0.1-87c0-2,0.1-4,0.2-6
		c0.2,1.1,0.3,2.3,0.4,3.4c0,33.1,0,66.2,0,99.3C396.8,207.2,396.6,208.4,396.5,209.5z"/>
	<path class="st9" d="M396.5,101.7c-0.6-2.3,0.4-5.1-1.5-7.1l1.5-1C397.1,96.2,397.1,99,396.5,101.7z"/>
	<path class="st11" d="M189.6,119.8l176.5-0.1c0.1,2,0.3,4,0.4,6c0,17.5-0.2,35,0.1,52.4c0.1,5-1.1,6.4-6.2,6.4
		c-54.9-0.2-109.9-0.1-164.8-0.1c-1,0-2-0.1-3,0c-2.3,0.2-3.3-0.7-3.3-3.1C189.5,160.7,189.6,140.2,189.6,119.8z"/>
	<path class="st12" d="M189.6,119.8c-0.1,20.5-0.2,40.9-0.3,61.4c0,2.4,1,3.3,3.3,3.1c1-0.1,2,0,3,0c54.9,0,109.8-0.1,164.8,0.1
		c5.1,0,6.3-1.4,6.2-6.4c-0.3-17.5-0.1-35-0.1-52.4c0-2-0.2-4-0.4-6c2.6,0.1,2.2,2.1,2.2,3.6c0,19.5,0,39,0.1,58.4
		c0,3.3-1.4,3.9-4.2,3.8c-5.5-0.1-11,0-16.5,0H194.9c-6.5,0-6.5,0-6.5-6.5c0-18,0-36,0-53.9C188.4,123.3,187.4,121.1,189.6,119.8z"
		/>
</g>
</svg>
